# xmcd
#
# Track frame offsets:
#	150
#	16379
#	57499
#	92529
#	126918
#	157477
#	199515
#
# Disc length: 3166 seconds
#
# Revision: 0
# Processed by: cddbd v1.5.2PL0 Copyright (c) Steve Scherf et al.
# Submitted via: EasyCDDAExtractor 2011.0.0.0
#
DISCID=5d0c5c07
DTITLE=Degrees Of Motion - Do You Want It Right Now
DYEAR=2007
DGENRE=House
TTITLE0=Do You Want It Right Now (Haji and Emanuel edit)
TTITLE1=Do You Want It Right Now (Haji and Emanuel remix)
TTITLE2=Shine On (Syke 'N' Sugarstarr remix)
TTITLE3=Do You Want It Right Now (Haji and Emanuel Dub)
TTITLE4=Shine On (Syke 'N' Sugarstarr dub)
TTITLE5=Do You Want It Right Now (1991 King Street Mix)
TTITLE6=Shine On (Original Club Mix)
EXTD=
EXTT0=
EXTT1=
EXTT2=
EXTT3=
EXTT4=
EXTT5=
EXTT6=
PLAYORDER=
